<?xml version="1.0" standalone="no"?>
<!DOCTYPE svg PUBLIC "-//W3C//DTD SVG 20010904//EN"
 "http://www.w3.org/TR/2001/REC-SVG-20010904/DTD/svg10.dtd">
<svg version="1.0" xmlns="http://www.w3.org/2000/svg"
 width="300.000000pt" height="300.000000pt" viewBox="0 0 300.000000 300.000000"
 preserveAspectRatio="xMidYMid meet">
<metadata>
Created by potrace 1.10, written by Peter Selinger 2001-2011
</metadata>
<g transform="translate(0.000000,300.000000) scale(0.050000,-0.050000)"
fill="#000000" stroke="none">
<path d="M2948 5573 c-151 -57 -248 -115 -388 -234 -60 -51 -123 -89 -138 -83
-22 7 -25 -5 -15 -58 8 -41 6 -57 -4 -41 -13 20 -20 15 -28 -20 -6 -26 -36
-110 -66 -187 -30 -77 -56 -159 -57 -183 -1 -24 -9 -39 -17 -34 -8 5 -16 -7
-18 -27 -2 -20 -7 -63 -12 -96 -4 -33 -10 -91 -12 -130 -2 -38 -15 -91 -30
-117 -14 -25 -21 -58 -16 -73 6 -15 -8 -48 -30 -73 -24 -28 -36 -65 -31 -92 5
-25 -1 -45 -13 -45 -15 0 -15 -6 0 -21 28 -28 10 -123 -20 -105 -13 8 -11 -1
4 -20 29 -35 16 -105 -15 -85 -17 11 -41 -63 -53 -162 -3 -23 -15 -61 -27 -84
-24 -45 -22 -86 5 -106 10 -6 10 -33 2 -60 -14 -45 -16 -45 -32 -7 -12 27 -15
10 -10 -55 5 -52 2 -95 -6 -95 -7 0 -15 -34 -17 -75 -6 -134 -9 -155 -30 -182
-16 -19 -13 -31 7 -44 27 -17 12 -28 -27 -21 -10 2 -15 -17 -12 -43 2 -25 -7
-72 -20 -105 -14 -33 -22 -106 -18 -163 3 -58 -2 -98 -12 -92 -29 18 5 -150
51 -258 62 -143 71 -110 66 237 -2 174 2 298 10 276 12 -31 18 -19 29 52 7 50
7 108 -1 128 -10 27 -7 32 12 21 20 -13 23 3 13 71 -7 55 -6 73 5 48 14 -33
19 -27 31 37 8 43 9 82 3 88 -6 7 -11 -9 -11 -35 0 -26 -5 -41 -12 -35 -6 7
-5 41 2 76 11 49 19 58 34 37 13 -20 16 -10 9 32 -10 67 88 374 175 545 48 97
92 146 64 74 -6 -17 -3 -26 7 -20 10 6 15 42 12 81 -3 38 1 65 9 60 7 -4 35
43 61 106 47 114 60 135 121 200 18 19 43 55 57 81 14 26 36 42 51 36 15 -6
33 0 39 13 6 13 6 -3 1 -36 -8 -45 -6 -52 9 -30 19 27 30 14 23 -26 -2 -10 6
-11 17 -4 14 8 11 36 -8 81 -28 68 -28 70 29 99 75 39 79 38 70 -11 -4 -22 0
-35 10 -29 10 6 14 28 10 48 -12 63 207 152 370 151 134 -1 372 -84 474 -164
53 -43 44 -156 -12 -135 -26 10 -27 7 -7 -13 57 -57 15 -46 -150 39 -717 373
-1506 -674 -1513 -2007 l-2 -300 70 -119 c39 -65 131 -182 205 -259 129 -134
172 -209 104 -183 -18 6 -26 3 -19 -8 20 -32 -9 -23 -70 20 -121 86 -283 322
-360 523 -43 113 -44 113 -82 75 -22 -22 -48 -34 -57 -28 -42 25 -206 -955
-222 -1328 -1 -24 -6 -21 -19 8 -12 28 -18 31 -20 10 -2 -16 -15 2 -30 40 -23
60 -27 63 -28 22 -1 -27 -7 -43 -14 -37 -7 7 -5 51 3 99 14 75 17 80 29 36 8
-32 18 20 27 140 19 248 87 703 124 830 l29 100 -8 -110 c-5 -60 -27 -231 -50
-380 -23 -148 -46 -346 -51 -440 l-9 -170 19 130 c10 72 33 243 49 380 17 138
51 351 76 475 50 246 50 251 4 170 l-32 -55 11 60 12 60 -41 -50 c-33 -41 -38
-43 -27 -10 12 38 11 38 -28 -2 -24 -25 -81 -49 -133 -57 -50 -7 -96 -21 -102
-30 -5 -10 -34 -15 -62 -12 -41 5 -58 -7 -81 -57 l-28 -62 11 70 c11 70 11 70
-18 19 -59 -103 -142 -549 -172 -926 -18 -235 -27 -273 -54 -246 -27 27 54
663 115 901 64 251 69 341 6 128 -42 -141 6 -107 -473 -340 -192 -94 -196 -95
-211 -52 -11 29 -21 35 -31 19 -8 -13 3 -53 26 -89 167 -263 422 -869 422
-1003 0 -24 11 -54 25 -68 20 -20 17 -22 -14 -11 -36 14 -36 11 6 -48 25 -35
39 -64 30 -64 -9 0 4 -14 29 -31 25 -18 39 -40 33 -50 -6 -11 -2 -19 10 -19
11 0 21 11 21 24 0 19 5 19 24 0 31 -31 76 -31 76 1 0 18 52 25 190 25 184 0
190 -1 190 -45 0 -25 10 -45 22 -45 12 0 17 12 12 28 -8 19 0 24 26 18 22 -6
33 -22 26 -38 -5 -15 0 -28 12 -28 12 0 20 11 17 24 -3 13 13 27 35 31 29 5
33 2 13 -11 -23 -16 6 -44 46 -44 3 0 10 53 16 119 6 65 17 128 24 140 17 27
404 28 421 1 7 -11 -1 -20 -17 -20 -42 0 -56 -57 -51 -199 4 -104 10 -121 42
-121 23 0 33 9 25 22 -10 16 -3 16 26 1 38 -20 40 -14 43 142 3 90 9 168 14
174 26 25 385 18 421 -9 35 -28 35 -29 -8 -29 -43 -1 -45 -9 -45 -151 0 -120
6 -150 30 -150 17 0 30 16 30 35 1 30 4 31 22 5 17 -24 20 -21 12 15 -12 53
16 60 44 10 27 -45 27 55 1 215 -9 61 -27 182 -38 270 -21 160 -67 392 -149
750 -46 204 -46 260 1 260 16 0 24 9 18 19 -18 28 -71 2 -71 -35 0 -24 -6 -26
-23 -9 -34 34 -4 85 52 85 58 0 111 -75 71 -100 -19 -12 -20 -37 -2 -113 13
-53 36 -151 51 -217 15 -66 29 -102 30 -80 1 24 8 31 16 18 8 -12 78 -56 154
-99 194 -107 208 -125 208 -258 0 -72 -8 -111 -23 -111 -16 -1 -17 -6 -4 -15
11 -8 22 -46 23 -85 2 -38 7 -88 12 -110 13 -56 -25 -135 -53 -112 -15 13 -23
1 -24 -35 -2 -29 1 -42 6 -28 29 79 75 17 93 -125 4 -33 8 126 10 353 3 393
-11 496 -60 447 -6 -5 -35 17 -66 49 -30 32 -68 53 -83 47 -15 -5 -33 4 -39
21 -7 17 -24 26 -39 20 -22 -8 -138 92 -123 107 13 13 302 -149 370 -207 l73
-62 0 -393 c0 -215 6 -392 12 -392 7 0 11 -25 10 -55 -1 -36 9 -56 28 -58 17
-1 35 -4 40 -6 49 -19 133 -7 124 17 -6 16 -3 23 8 17 23 -14 26 24 37 405 17
550 4 520 298 679 152 81 234 101 120 28 -31 -20 -64 -48 -73 -62 -9 -14 -25
-21 -35 -14 -11 6 -19 2 -19 -10 0 -28 19 -26 80 9 92 52 96 42 50 -118 -26
-87 -43 -111 -101 -138 -65 -32 -107 -83 -84 -105 5 -5 35 4 67 21 47 24 50
30 18 30 -37 1 -37 3 -5 22 51 29 77 6 56 -51 -10 -26 -14 -51 -9 -57 6 -5 -4
-43 -21 -84 -17 -41 -25 -84 -18 -95 7 -12 4 -15 -8 -8 -11 7 -26 -1 -33 -18
-8 -21 -3 -26 13 -17 19 11 20 8 2 -11 -26 -28 -75 -10 -56 20 20 34 -8 20
-60 -29 -41 -37 -46 -50 -22 -59 18 -7 34 4 42 29 9 29 19 34 37 20 30 -25 23
-155 -11 -196 -20 -24 -19 -34 9 -49 19 -11 29 -29 22 -41 -8 -12 -2 -17 14
-12 18 6 36 68 51 178 12 92 36 227 54 298 17 72 50 229 74 350 98 510 113
578 133 585 33 11 45 -45 25 -118 -10 -37 -47 -224 -82 -417 -35 -192 -76
-413 -91 -490 -39 -195 -75 -508 -60 -523 15 -15 74 42 74 73 0 14 13 10 31
-9 47 -46 49 -42 49 101 l0 132 -55 -12 -55 -13 47 37 c38 30 83 38 237 39
221 1 225 -3 228 -231 0 -74 6 -123 11 -109 6 14 21 19 34 11 46 -29 73 -22
73 19 0 23 11 73 24 110 17 46 18 72 4 81 -12 8 -27 30 -34 49 -7 19 -32 35
-55 35 -23 0 -36 9 -29 20 19 30 421 26 445 -5 11 -14 25 -82 32 -152 16 -157
43 -218 63 -139 8 30 8 63 1 75 -13 21 13 29 66 22 17 -2 21 6 12 23 -12 21
-10 21 12 1 45 -41 99 -31 99 20 1 33 5 38 18 18 13 -20 58 -25 179 -20 118 5
165 0 172 -18 15 -38 68 -30 138 20 115 82 125 98 105 177 -29 118 199 807
340 1023 55 84 58 99 23 92 -35 -7 -595 279 -604 309 -23 72 -91 236 -81 194
102 -426 205 -1185 152 -1129 -10 10 -33 154 -51 318 -60 542 -138 911 -193
911 -9 0 -12 -16 -7 -35 6 -19 0 -15 -13 10 -27 50 -63 62 -45 15 6 -17 2 -30
-9 -30 -10 0 -25 20 -33 45 -8 25 -18 35 -23 22 -9 -21 -39 -18 -223 24 -25 5
-46 25 -46 44 -2 30 -4 29 -17 -4 -14 -36 -16 -36 -28 9 -7 27 -17 43 -24 37
-6 -6 12 -96 39 -199 80 -303 176 -1282 113 -1148 -11 22 -20 90 -21 150 -4
268 -121 1065 -169 1154 -39 72 -40 23 -1 -104 55 -181 152 -900 146 -1080 -2
-64 -4 -68 -10 -20 -5 33 -26 213 -49 400 -61 503 -169 1007 -178 830 -1 -19
-11 -13 -28 17 l-26 47 -41 -69 c-22 -39 -47 -91 -55 -116 -48 -151 -397 -558
-441 -515 -6 6 14 27 44 46 62 41 132 114 193 200 24 33 -16 -1 -87 -75 -71
-74 -141 -135 -154 -135 -53 0 -20 54 102 170 70 66 167 183 215 260 l88 140
-2 340 c-5 675 -310 1496 -670 1799 -35 29 -58 58 -51 65 19 18 106 -47 167
-126 102 -132 151 -180 83 -80 -37 53 -105 131 -152 172 -86 76 -99 107 -66
159 27 43 236 -199 249 -288 2 -15 14 -39 26 -54 92 -114 334 -700 315 -761
-9 -28 -6 -37 10 -27 16 10 19 -2 10 -42 -10 -45 -8 -51 11 -27 18 24 20 15
10 -40 -9 -53 -7 -63 9 -40 17 24 20 17 17 -30 -6 -103 3 -173 22 -161 10 6
14 -26 9 -74 -8 -63 -5 -77 11 -55 16 22 18 10 11 -50 -7 -61 -5 -70 9 -40 14
28 18 -11 13 -130 -5 -129 -3 -146 8 -70 l14 100 4 -114 c2 -62 -4 -118 -12
-123 -30 -18 -31 -278 -1 -269 36 12 114 247 115 346 1 103 -33 314 -54 329
-8 6 -18 61 -22 121 -4 61 -15 124 -23 141 -9 17 -22 71 -29 120 -7 49 -21
139 -31 199 -11 61 -29 175 -41 255 -14 91 -35 155 -56 170 -21 16 -33 55 -34
105 0 44 -9 98 -18 120 -10 22 -18 47 -19 56 -1 8 -15 24 -32 34 -18 12 -21
20 -6 20 18 0 18 16 -2 65 -15 36 -22 78 -17 93 6 15 2 23 -7 17 -10 -6 -21
31 -24 82 -7 110 -87 401 -158 581 -28 70 -58 151 -67 180 -10 33 -16 39 -17
16 -2 -27 -21 -17 -87 47 -285 275 -596 372 -867 272z m262 -73 c15 0 30 -10
34 -23 7 -20 27 -26 126 -36 11 -1 8 -9 -6 -18 -17 -11 1 -25 55 -43 45 -14
81 -34 81 -44 0 -10 9 -13 19 -7 10 7 15 -6 11 -29 -4 -23 1 -36 11 -29 10 6
19 1 19 -11 0 -12 11 -16 23 -8 16 10 20 4 12 -17 -23 -60 52 -121 84 -69 24
39 24 41 -3 19 -30 -25 -56 -15 -56 20 0 11 16 14 35 7 29 -10 29 -7 -4 18
-21 16 -29 30 -18 30 30 0 90 -71 74 -87 -8 -7 -3 -13 10 -13 13 0 23 -19 23
-41 0 -23 8 -36 19 -30 10 6 4 -16 -12 -50 -32 -63 -20 -112 14 -58 12 18 18
20 19 5 0 -31 -69 -69 -91 -50 -8 8 -9 3 -1 -11 9 -15 2 -25 -17 -25 -36 0
-41 -56 -9 -100 19 -25 20 -25 11 4 -6 19 -3 40 8 47 19 12 27 -16 20 -71 -3
-23 1 -24 19 -7 17 16 18 34 3 61 -23 43 -9 73 42 92 20 7 41 40 48 74 7 33
19 65 28 71 9 5 9 -15 0 -46 -30 -100 -51 -143 -71 -149 -11 -3 -20 -28 -20
-56 -1 -79 -32 -181 -51 -169 -10 6 -12 -5 -5 -24 11 -29 -2 -27 -75 16 -49
28 -150 73 -224 99 -74 26 -135 53 -135 60 0 63 -590 -145 -642 -227 -18 -27
-23 -16 -116 273 -109 334 -93 346 24 18 51 -141 92 -241 93 -222 0 18 -21 96
-49 172 -55 154 -59 172 -30 154 11 -7 14 1 8 19 -9 22 0 31 29 31 30 0 38 -9
30 -31 -7 -19 7 -49 34 -74 37 -34 44 -36 33 -9 -7 19 -4 34 8 34 31 0 -48 98
-82 101 -27 2 -27 3 0 14 59 22 69 85 14 85 -14 0 -12 -8 6 -20 26 -17 26 -19
-3 -20 -18 0 -38 14 -44 30 -12 31 16 40 107 32 49 -4 49 -4 10 27 -29 23 -31
31 -10 29 76 -7 87 1 54 38 -30 33 -30 35 5 35 21 0 34 -9 28 -20 -6 -12 8 -1
30 24 22 25 48 45 58 45 11 0 36 22 57 50 44 58 98 86 81 40 -16 -41 -2 -38
44 12 26 27 43 34 53 19 18 -30 69 11 72 56 1 21 5 24 11 8 6 -14 22 -25 37
-25z m671 -491 c-22 -77 -57 -192 -80 -257 -54 -157 -39 -167 19 -13 55 149
69 153 53 15 -11 -91 -4 -123 47 -231 80 -170 76 -186 -22 -76 -45 51 -94 93
-110 93 -15 0 -28 16 -28 35 -1 30 -3 31 -20 5 -28 -43 -24 -5 10 107 16 54
25 122 19 150 -7 41 -6 44 7 14 13 -30 29 -1 74 136 66 205 86 219 31 22z
m-1321 -404 c0 -33 -183 -249 -198 -234 -6 6 25 82 69 169 77 154 129 181 129
65z m440 -385 c0 -30 7 -41 16 -26 19 30 184 29 223 -1 22 -18 25 -17 13 3
-13 22 -9 22 26 1 23 -15 43 -40 45 -57 2 -16 10 20 17 80 l13 110 4 -104 3
-105 65 11 c36 6 90 19 121 29 33 10 51 10 44 -1 -6 -10 -43 -24 -81 -31 -74
-14 -76 -49 -2 -49 25 0 56 -11 69 -24 31 -31 47 -12 65 79 l14 75 5 -100 c3
-55 4 -106 3 -113 -1 -8 25 -6 58 3 33 10 55 10 49 0 -12 -19 -251 -98 -455
-150 -126 -32 -202 -110 -107 -110 16 0 43 -5 60 -12 21 -8 32 -1 32 18 0 45
94 70 372 97 264 25 306 16 277 -63 -6 -16 13 -7 43 20 47 44 52 45 38 10 -9
-22 -16 -55 -17 -73 -1 -18 -12 -28 -26 -23 -15 6 -21 -5 -14 -29 13 -50 -46
-192 -72 -175 -12 7 -16 -1 -9 -18 16 -41 -44 -54 -281 -58 l-195 -4 -58 108
c-32 59 -58 119 -58 133 0 14 -28 32 -62 39 -85 19 -198 -5 -198 -41 0 -17
-21 -63 -46 -104 -26 -41 -53 -91 -60 -110 -14 -38 -124 -44 -363 -18 -137 15
-211 90 -211 214 0 36 -8 69 -19 72 -10 4 -24 34 -32 67 -12 49 -9 56 12 35
21 -19 34 -18 64 9 43 39 92 38 391 -6 239 -35 264 -42 264 -80 0 -33 3 -34
70 -8 66 25 60 83 -10 92 -71 10 -95 16 -230 57 -66 20 -133 39 -150 41 -89
14 -164 56 -132 74 18 10 41 13 52 6 11 -7 14 2 6 22 -9 24 -5 30 11 20 16
-10 23 8 23 59 0 73 1 74 65 58 36 -8 93 -16 128 -17 36 -1 58 -11 52 -22 -6
-11 1 -9 15 4 15 14 25 62 24 110 -3 62 2 78 16 56 11 -16 20 -52 20 -80z
m242 -665 c2 -47 1 -93 -1 -103 -2 -10 9 -26 23 -35 19 -12 15 -17 -14 -18
-40 -2 -40 -2 0 -19 22 -9 28 -18 14 -19 -19 -1 -15 -18 15 -59 l41 -59 -67
-41 c-37 -23 -75 -42 -84 -42 -36 0 -195 88 -173 95 13 5 19 16 14 26 -14 22
60 62 79 43 8 -7 13 40 11 106 -6 216 -8 210 70 210 69 0 70 -2 72 -85z m762
-109 c-12 -31 -32 -137 -45 -236 -13 -99 -40 -211 -60 -250 -72 -141 -365
-491 -475 -567 -98 -68 -134 -69 -49 -1 63 50 64 52 30 97 l-35 47 -10 -53
c-9 -44 -22 -54 -80 -56 -101 -5 -100 -4 -100 -36 0 -17 26 -32 65 -37 36 -4
7 -8 -65 -8 -71 -1 -112 3 -90 8 22 6 48 18 58 27 22 21 -77 48 -107 30 -11
-7 -21 -5 -21 6 0 11 7 23 15 28 8 5 3 5 -13 1 -15 -4 -39 3 -54 15 -14 13
-35 17 -46 10 -34 -21 1 -74 66 -102 34 -15 48 -28 30 -28 -79 -2 -273 184
-483 462 -140 187 -131 159 -182 567 -4 33 -14 78 -21 100 -14 39 -13 39 12 1
116 -172 253 -278 240 -185 -7 50 -3 59 16 41 32 -31 80 -12 81 30 0 22 9 16
25 -17 26 -54 74 -76 74 -35 1 18 5 18 18 -2 14 -22 25 -23 64 -1 82 45 96 40
84 -34 -29 -178 204 -398 304 -288 20 22 48 40 63 40 15 0 26 7 24 15 -2 8 7
40 20 71 13 31 23 97 23 145 0 95 2 98 55 72 134 -67 185 -64 185 10 0 47 0
47 40 7 22 -22 54 -40 71 -40 25 0 26 -8 7 -44 l-24 -45 58 37 c95 61 150 117
191 199 44 86 74 85 41 -1z m-1744 -366 c13 -32 19 -73 13 -90 -7 -16 -3 -30
8 -30 10 0 17 -7 15 -15 -3 -8 6 -33 18 -55 17 -31 16 -49 -5 -78 -31 -43 17
-142 58 -118 13 7 5 -8 -17 -34 -24 -28 -28 -40 -10 -30 25 15 26 13 5 -14
-14 -17 -20 -48 -13 -68 10 -31 8 -33 -10 -8 -16 22 -21 23 -22 4 0 -15 -8
-21 -18 -15 -10 6 -14 -9 -8 -34 8 -37 5 -40 -14 -15 -17 23 -21 3 -15 -92 8
-145 90 -322 241 -524 55 -74 115 -157 132 -185 82 -133 183 -278 202 -289 11
-7 30 -32 42 -56 12 -24 -115 91 -282 256 -412 406 -527 531 -486 530 9 -1 35
-27 57 -60 23 -33 154 -165 290 -294 l249 -234 -265 272 c-153 157 -266 290
-268 314 -2 23 -5 78 -7 122 -1 44 -8 85 -15 91 -6 7 1 43 17 81 25 60 25 75
1 110 -19 27 -32 32 -37 16 -5 -15 -23 -20 -43 -12 -20 8 -30 23 -22 35 7 12
16 64 20 115 11 129 27 188 48 174 10 -6 24 -2 31 10 7 11 3 20 -9 20 -31 0
-26 32 10 69 18 17 22 31 10 31 -23 0 -30 105 -8 126 7 8 26 3 41 -9 15 -12
33 -17 40 -10 7 7 2 13 -11 13 -12 0 -23 9 -23 20 0 42 36 18 60 -40z m1920
-85 c20 -41 19 -42 -6 -10 -30 37 -54 45 -54 18 0 -9 23 -29 52 -44 41 -22 49
-38 41 -80 -6 -29 -3 -61 6 -71 31 -34 45 -133 17 -117 -21 12 -21 10 -1 -12
14 -15 25 -35 25 -44 0 -10 -11 -11 -25 -3 -20 11 -20 8 0 -13 30 -32 33 -67
5 -49 -11 7 -20 3 -20 -9 0 -11 11 -22 25 -22 14 -1 4 -10 -22 -20 -34 -14
-43 -29 -33 -54 84 -215 2 -363 -457 -829 -53 -54 -94 -102 -89 -107 10 -10
469 457 542 551 29 39 54 60 54 47 0 -45 -627 -708 -748 -791 l-62 -43 63 69
c34 37 82 104 105 148 23 44 59 103 81 130 293 381 502 802 426 859 -30 22
-66 103 -54 122 6 10 -3 19 -20 19 -38 0 -42 77 -4 92 16 6 25 32 21 63 -3 29
8 78 24 109 16 31 24 56 18 56 -6 0 -2 18 10 40 28 52 53 51 80 -5z m-293
-345 c6 -121 11 -237 12 -259 1 -38 1 -38 30 0 17 22 30 29 30 18 1 -12 -11
-38 -27 -59 -24 -33 -23 -45 4 -89 32 -50 32 -50 -7 -17 -40 34 -224 -53 -272
-129 -38 -60 -20 -258 22 -236 61 33 152 65 135 48 -9 -9 -58 -38 -109 -66
-104 -57 -195 -259 -103 -230 66 21 41 -7 -57 -64 -52 -30 -99 -61 -105 -68
-5 -7 -28 -24 -50 -37 -22 -14 -26 -21 -10 -16 17 5 53 15 80 24 35 10 44 8
30 -7 -89 -94 -562 -95 -659 -1 -25 24 -6 23 62 -3 76 -29 211 -41 196 -18 -6
11 -43 19 -81 19 -48 0 -66 7 -56 23 9 14 5 18 -8 9 -27 -16 -110 25 -194 97
-59 50 -59 50 70 -9 167 -76 301 -101 429 -80 154 26 318 92 300 122 -5 8 -2
52 8 97 11 44 16 81 13 81 -74 0 -230 -93 -231 -138 -1 -28 -10 -70 -21 -92
-14 -30 -17 -19 -10 44 l8 84 -123 -8 c-68 -4 -133 2 -147 14 -21 16 -27 0
-29 -77 l-4 -97 -8 83 c-4 46 -21 95 -38 110 -27 22 -30 18 -25 -24 4 -27 -1
-62 -11 -77 -12 -19 -10 -24 6 -14 14 9 23 1 22 -22 0 -30 -9 -26 -50 20 -52
59 -62 103 -29 124 11 7 15 -1 8 -17 -6 -16 -1 -35 11 -42 12 -8 21 4 21 29 0
29 -22 51 -72 72 -90 38 -98 30 -68 -62 13 -40 19 -78 12 -84 -6 -7 -15 1 -20
16 -5 15 -19 61 -31 100 -17 56 -41 81 -102 108 -43 20 -90 50 -104 67 -15 19
8 12 60 -17 105 -59 113 -51 95 98 l-14 121 -123 78 c-97 62 -129 74 -153 56
-26 -20 -26 -18 -2 12 24 31 23 41 -2 70 -17 19 -36 53 -43 75 -12 36 -9 36
25 -5 58 -68 66 -57 62 90 -8 243 -1 338 20 305 11 -16 20 -72 20 -123 0 -82
9 -101 74 -158 l75 -66 13 49 c14 47 14 47 16 -7 1 -30 10 -55 20 -55 10 0 14
-18 8 -40 -6 -22 -2 -40 8 -40 11 0 59 -63 107 -140 90 -144 134 -180 162
-136 12 19 16 17 17 -9 0 -36 18 -41 176 -45 l85 -2 -72 67 c-55 50 -79 61
-99 45 -31 -26 -60 7 -38 43 9 15 5 18 -12 7 -17 -10 -22 -6 -16 12 6 17 39
29 82 30 41 1 68 -6 61 -17 -7 -11 19 -14 66 -6 42 7 97 16 122 20 38 6 44 0
36 -40 -4 -27 0 -54 11 -60 10 -7 -2 -29 -27 -50 -25 -21 -34 -38 -22 -38 13
-1 27 8 31 20 4 12 38 26 76 32 39 6 79 19 89 29 10 10 33 18 50 18 24 0 41
48 69 205 21 114 43 190 50 171 36 -101 139 36 153 206 18 205 23 195 36 -72z
m1076 -638 c8 5 19 1 25 -9 7 -10 45 -25 85 -32 55 -11 67 -19 46 -32 -24 -15
-23 -18 5 -19 18 0 40 -11 48 -23 10 -17 3 -19 -24 -7 -21 8 -110 30 -198 48
-115 23 -161 41 -165 64 -5 28 7 30 80 17 46 -8 91 -12 98 -7z m-3443 -11
l-50 -17 50 -4 c28 -2 -26 -19 -120 -39 -93 -19 -186 -42 -206 -50 -32 -14
-33 -10 -12 35 14 30 34 47 50 40 16 -6 28 0 28 13 0 13 8 19 17 13 9 -6 43
-3 74 5 85 23 236 26 169 4z m252 -244 c-18 -101 -32 -229 -32 -284 0 -55 -4
-96 -9 -91 -15 16 -19 263 -4 338 l13 70 -29 -70 c-19 -47 -26 -123 -21 -230
6 -123 4 -139 -8 -70 -15 86 -16 87 -19 20 -1 -38 6 -122 16 -186 13 -75 12
-172 -2 -280 -11 -90 -27 -249 -36 -354 -8 -104 -18 -158 -21 -120 l-6 70 -14
-80 -14 -80 -3 83 c-2 46 4 87 13 90 9 4 9 106 0 227 -11 158 -7 311 15 540
28 285 41 375 80 546 14 63 48 35 51 -42 2 -53 6 -47 24 36 35 168 39 63 6
-133z m2819 -7 c-9 -50 -7 -54 11 -23 12 20 16 66 9 103 -7 37 -4 72 6 78 10
6 23 -18 30 -53 70 -394 97 -650 100 -970 2 -164 -5 -266 -17 -267 -11 0 -9
-6 5 -11 14 -6 25 -45 25 -89 0 -71 -4 -77 -37 -60 -33 18 -39 56 -49 346 -7
179 -16 344 -21 366 -6 22 -12 99 -13 170 -3 87 -9 114 -18 81 -9 -33 -25 49
-48 240 -40 335 -40 361 -1 239 16 -49 24 -117 18 -150z m-3500 -74 c-19 -91
-51 -310 -72 -486 l-37 -320 9 220 c10 240 32 401 83 625 45 198 60 166 17
-39z m347 -52 c-19 -130 -40 -312 -47 -405 -7 -93 -18 -191 -24 -219 l-11 -50
-18 47 c-15 39 -24 43 -48 23 -19 -16 -30 -17 -30 -4 0 12 9 27 20 34 11 7 20
26 20 43 0 35 -45 -1 -65 -53 -10 -24 -12 -23 -13 4 -1 18 7 39 18 46 32 19
23 50 -10 37 -17 -6 -31 -38 -32 -74 0 -35 -6 -51 -12 -36 -7 19 -23 10 -50
-30 l-39 -57 13 200 c23 370 97 726 142 688 21 -17 35 -17 58 2 24 20 30 20
32 -3 1 -23 3 -23 12 0 8 21 14 22 26 3 11 -18 22 -16 42 7 50 56 51 36 16
-203z m3516 199 c9 2 32 -4 51 -12 21 -9 48 -5 66 10 16 13 33 21 37 17 23
-27 105 -504 123 -716 6 -71 15 -138 21 -150 6 -12 -2 -6 -17 13 -16 19 -35
29 -42 21 -7 -7 -13 9 -14 36 0 44 -2 45 -27 13 -39 -52 -52 -43 -42 30 8 56
7 58 -7 15 -17 -48 -18 -47 -27 20 -9 62 -10 60 -13 -25 -3 -99 -26 -120 -62
-60 -17 28 -19 23 -9 -25 10 -44 7 -54 -9 -39 -13 11 -32 115 -43 230 -23 237
-57 521 -73 606 -10 52 -8 55 30 34 23 -12 48 -20 57 -18z m366 -416 c22 -145
39 -325 37 -400 l-2 -137 -17 168 c-9 93 -34 286 -56 430 -23 144 -46 294 -51
332 -8 48 -2 39 19 -30 16 -55 47 -219 70 -363z m-90 169 c30 -171 33 -327 4
-196 -23 99 -74 381 -74 404 0 79 41 -42 70 -208z m-4083 80 c-15 -58 -27
-123 -27 -145 0 -23 -10 -54 -22 -71 -15 -22 -18 -9 -8 50 23 149 58 287 71
279 8 -4 1 -55 -14 -113z m775 -31 c23 -61 183 -198 310 -263 74 -39 208 -162
176 -162 -7 0 -4 -11 8 -25 25 -31 54 -175 34 -175 -19 0 -132 63 -175 98 -20
16 -60 31 -90 34 -30 3 -130 31 -221 62 l-166 56 5 118 c9 265 69 394 119 257z
m2560 10 c14 -24 27 -71 30 -105 4 -33 12 -107 19 -165 l12 -106 -74 -31 c-41
-17 -103 -32 -140 -34 -36 -2 -61 -11 -56 -19 12 -19 -22 -20 -40 -1 -27 27
-70 22 -60 -6 13 -31 -62 -67 -119 -57 -19 4 -31 0 -26 -9 9 -13 -148 -102
-179 -102 -6 0 -1 17 10 39 12 21 25 72 30 113 12 89 51 127 249 247 185 112
262 177 262 223 0 29 11 41 54 56 3 1 15 -18 28 -43z m-553 -26 c35 -36 42
-89 11 -89 -11 0 -20 13 -20 29 0 53 -45 58 -82 9 -30 -38 -37 -41 -38 -14 0
18 20 48 44 65 54 38 47 38 85 0z m-1883 -34 c35 -25 69 -50 74 -57 6 -6 50
-40 98 -75 48 -35 82 -63 74 -63 -20 0 -211 127 -282 188 -74 63 -51 68 36 7z
m2334 37 c0 -11 -237 -179 -297 -211 -74 -39 -35 6 61 70 47 32 111 78 143
103 51 42 93 59 93 38z m1128 -55 c-5 -8 12 -29 37 -46 25 -17 45 -42 45 -55
0 -12 14 -26 30 -31 27 -7 27 -6 0 13 -16 12 -21 21 -10 21 36 -1 94 -56 81
-78 -9 -15 3 -15 42 0 40 15 58 15 63 0 4 -11 19 -21 34 -21 30 0 29 -18 -8
-125 -15 -45 -34 -70 -47 -62 -12 7 -15 4 -8 -8 18 -29 -85 -222 -131 -247
-21 -11 -37 -36 -35 -54 6 -59 0 -84 -22 -84 -12 0 -16 8 -10 18 6 10 -5 35
-24 56 -19 21 -26 24 -16 7 16 -25 14 -27 -9 -6 -35 31 -44 85 -13 85 16 1 15
6 -3 17 -36 23 -94 504 -63 524 17 10 17 16 -2 23 -40 13 -9 67 37 67 23 0 37
-6 32 -14z m-4668 -88 c0 -50 9 -69 33 -69 25 0 29 -13 20 -63 -7 -34 -13 -88
-13 -121 0 -32 -8 -54 -17 -48 -10 6 -16 -29 -13 -78 8 -129 -31 -252 -72
-229 -22 12 -31 9 -31 -11 0 -16 7 -24 16 -18 9 5 11 -20 4 -56 -16 -83 -23
-91 -40 -44 -7 21 -75 166 -150 323 -157 328 -150 305 -92 306 25 0 62 13 84
30 46 35 79 38 59 6 -9 -15 -5 -18 10 -8 13 8 18 32 12 53 -13 40 25 36 90 -9
25 -17 26 -16 5 7 -21 23 -17 36 20 72 57 54 75 44 75 -43z m1732 -78 c6 -16
24 -24 40 -18 20 8 25 2 16 -20 -9 -25 -19 -27 -49 -7 -44 27 -68 74 -38 74
11 0 25 -13 31 -29z m608 -67 c0 -19 7 -25 15 -14 8 11 49 20 90 20 83 0 88
-27 13 -64 -26 -14 -49 -34 -50 -45 -2 -12 -4 -25 -5 -31 -2 -5 -25 -1 -52 10
-32 12 -54 11 -62 -2 -8 -13 -26 -9 -48 11 -19 17 -40 26 -46 19 -12 -11 -60
63 -67 102 -1 11 45 22 105 24 89 3 107 -2 107 -30z m2100 -69 c0 -36 6 -114
13 -173 9 -69 6 -104 -6 -96 -11 6 -22 55 -25 108 -2 53 -7 125 -9 161 -3 36
2 65 11 65 9 0 16 -29 16 -65z m-2448 -8 c-11 -27 -8 -29 18 -7 20 17 30 18
30 2 0 -12 15 -22 32 -22 27 0 28 -5 8 -30 -31 -38 -62 -39 -48 -3 7 20 -4 26
-41 22 -56 -6 -64 10 -27 47 33 33 43 30 28 -9z m-919 -69 c162 -49 433 -159
421 -171 -4 -4 -60 15 -123 43 -63 28 -184 70 -268 93 -84 22 -162 49 -172 59
-27 26 -12 23 142 -24z m2679 27 c-8 -8 -84 -34 -168 -58 -189 -53 -418 -135
-439 -155 -8 -9 86 -9 209 -1 123 7 255 8 294 1 75 -14 72 -8 100 -217 l9 -75
-193 1 c-127 1 -180 8 -154 19 36 15 36 17 4 19 -28 1 -35 14 -30 56 6 54 9
55 160 61 l153 6 8 -66 c9 -66 9 -66 12 9 3 69 -2 75 -52 78 -30 2 -82 5 -115
8 -33 3 -84 6 -114 7 -36 1 -58 16 -67 44 -15 47 -37 32 -59 -40 -9 -29 -7
-42 5 -35 12 7 19 -23 17 -76 -2 -95 -47 -128 -134 -100 -23 7 -38 2 -38 -12
0 -15 31 -21 90 -16 l90 7 0 -73 c0 -73 -25 -99 -97 -96 -26 2 -25 5 7 19 35
15 34 17 -15 19 -38 1 -56 12 -57 36 -1 23 -7 18 -18 -15 -10 -32 -16 15 -17
134 -1 235 -57 341 -121 231 -12 -19 -21 -25 -21 -13 -1 37 74 93 103 77 14
-9 19 -8 11 2 -19 20 100 69 385 160 211 67 279 82 252 54z m-1192 -48 c0 -12
-13 -16 -29 -10 -19 7 -25 1 -18 -18 6 -16 3 -29 -8 -29 -38 0 -44 28 -12 63
32 36 67 33 67 -6z m-2340 -178 c-18 -43 -20 -39 -11 31 6 44 12 103 14 130 2
28 7 14 11 -31 5 -44 -2 -103 -14 -130z m767 116 c-8 -13 -3 -15 10 -7 13 8
18 23 12 33 -6 11 3 19 21 19 18 0 27 -9 20 -20 -7 -11 2 -20 19 -20 17 0 31
-9 31 -20 0 -24 -101 -20 -135 6 -14 10 -25 32 -25 49 0 24 6 25 30 5 16 -13
24 -34 17 -45z m2739 25 c14 -56 -8 -63 -61 -20 -31 25 -37 40 -20 47 49 20
70 12 81 -27z m-1478 -32 c14 -36 -1 -68 -32 -68 -12 0 -10 13 6 33 25 29 23
31 -17 19 -47 -15 -65 17 -20 35 42 17 50 14 63 -19z m1376 -6 c16 24 18 23
11 -1 -4 -16 -30 -30 -56 -32 -27 -1 -69 -9 -94 -17 -57 -19 -60 19 -4 49 31
16 49 16 71 -3 17 -14 29 -16 27 -6 -8 38 6 56 15 20 8 -31 14 -33 30 -10z
m-1279 -167 c-5 -52 -17 -95 -27 -95 -10 0 -18 -9 -18 -20 0 -11 13 -20 29
-20 28 0 65 119 54 175 -3 14 6 25 18 25 17 0 19 -41 8 -145 -9 -80 -15 -160
-14 -178 1 -17 -17 -43 -41 -55 -24 -13 -29 -19 -10 -13 19 5 40 1 47 -10 6
-10 -9 -20 -35 -22 l-46 -2 45 -9 c55 -11 60 -46 7 -46 -54 0 -102 21 -102 43
0 11 9 14 20 7 11 -7 20 -3 20 9 0 11 -9 21 -20 21 -53 0 -16 80 45 99 l65 19
-70 -4 -70 -4 -15 140 c-14 135 -12 142 39 187 65 58 83 33 71 -102z m-1056
40 c-19 -61 -46 -76 -129 -73 -137 4 -220 -2 -220 -17 0 -8 72 -12 160 -8
l160 6 0 -58 c0 -39 -10 -58 -30 -58 -16 0 -30 7 -30 16 0 10 -58 17 -130 17
-71 0 -130 -8 -130 -18 0 -25 59 -45 85 -29 12 8 15 4 7 -10 -9 -14 -1 -23 18
-23 18 0 26 10 19 21 -9 14 16 18 74 11 48 -5 94 -10 102 -11 8 0 15 -28 15
-61 0 -58 -3 -60 -85 -58 -80 3 -81 4 -25 18 58 15 -38 30 -150 23 -20 -1 -22
2 -5 9 14 6 25 20 25 31 0 11 -10 13 -22 6 -12 -8 -31 -2 -42 13 -13 20 -16 9
-11 -37 4 -36 2 -65 -5 -65 -7 0 -9 -29 -5 -65 6 -51 3 -59 -14 -35 -26 34
-11 331 22 435 l20 65 170 0 c167 0 169 -1 156 -45z m271 37 c0 -4 -12 -31
-27 -60 -18 -33 -24 -87 -18 -144 l10 -90 -107 6 c-91 5 -108 12 -112 46 -3
31 -1 32 7 5 6 -21 28 -34 53 -33 33 2 36 5 10 12 -40 10 -67 120 -46 187 11
34 8 40 -13 29 -19 -11 -21 -9 -7 6 11 12 65 25 120 29 55 4 107 9 115 11 8 2
15 1 15 -4z m158 -363 c22 -182 23 -178 -34 -137 -42 29 -61 88 -29 88 8 0 13
61 10 135 -8 181 26 125 53 -86z m-1068 171 c43 -36 39 -173 -5 -198 -19 -12
-24 -21 -10 -21 37 -1 34 -288 -3 -319 -19 -16 -120 -21 -315 -18 l-287 6 -6
150 c-5 123 0 154 29 175 19 14 24 25 11 25 -29 0 -33 163 -5 191 31 30 556
38 591 9z m3950 -10 c14 -17 21 -68 17 -119 -4 -50 1 -94 10 -97 10 -3 19 -77
20 -165 l3 -159 -304 -6 c-355 -6 -352 -8 -342 201 8 173 63 180 72 10 l6
-115 194 -3 c343 -5 309 -28 292 201 l-14 183 -242 -5 -242 -6 -6 -55 c-4 -31
-19 -55 -35 -55 -38 0 -41 192 -4 206 65 26 552 12 575 -16z m-1608 -133 c-10
-140 -29 -189 -68 -174 -12 4 -12 25 1 57 11 28 24 86 28 130 19 187 54 175
39 -13z m-1437 -121 c-5 -48 -8 -14 -8 74 0 88 3 126 8 86 4 -41 4 -113 0
-160z m1565 51 c0 -161 -18 -198 -22 -45 -4 128 1 198 12 198 6 0 10 -69 10
-153z m-1600 11 c0 -88 -11 -100 -70 -78 -29 11 -54 9 -70 -6 -20 -19 -23 -18
-12 1 18 32 -12 33 -44 1 -19 -19 -24 -14 -24 20 0 59 171 67 186 9 5 -19 10
-3 11 35 1 39 -4 61 -12 50 -22 -29 -151 -32 -169 -4 -30 47 -15 54 94 49
l110 -5 0 -72z m2116 62 c119 0 136 -19 116 -129 l-13 -68 -52 48 c-48 44
-102 50 -77 9 6 -10 -37 -17 -95 -17 -95 1 -134 19 -135 62 0 9 73 13 161 9
139 -6 164 -2 181 29 16 31 13 34 -26 19 -25 -9 -72 -9 -104 0 -40 12 -69 9
-89 -7 -18 -15 -25 -16 -17 -3 8 15 -3 19 -34 13 -31 -6 -51 3 -60 26 -11 30
-3 33 63 22 41 -7 123 -13 181 -13z m864 -61 c0 -33 9 -59 20 -59 11 0 20 -9
20 -20 0 -12 -84 -22 -205 -24 l-205 -4 200 -12 200 -12 -201 -4 -201 -4 1
105 1 105 185 -6 185 -7 0 -58z m-3244 -64 c-6 -44 -96 -80 -96 -39 0 11 -11
19 -25 19 -69 -3 -96 7 -83 28 9 14 5 18 -9 9 -12 -8 -39 -5 -58 6 -26 16 5
21 121 21 151 1 157 -1 150 -44z m1144 -66 c0 -5 -20 -18 -45 -28 -45 -18 -45
-18 5 -22 l50 -3 -50 -16 -50 -16 50 -3 c48 -2 49 -3 11 -32 -38 -29 -38 -29
0 -30 39 0 39 -1 0 -30 -38 -29 -38 -29 0 -31 34 -2 34 -4 4 -12 -19 -5 -35
-23 -35 -40 0 -19 11 -26 30 -19 17 7 30 3 30 -8 0 -10 -16 -20 -35 -20 -30
-2 -29 -4 5 -19 33 -14 34 -17 6 -19 -18 0 -40 -11 -48 -24 -10 -16 -1 -20 29
-12 24 6 43 3 43 -7 0 -10 -8 -18 -18 -18 -10 0 -34 -6 -54 -13 -25 -10 -30
-7 -18 13 12 19 8 23 -16 14 -18 -7 -38 -4 -45 7 -6 10 3 19 20 19 17 0 31 10
31 21 0 12 -9 16 -20 9 -11 -7 -20 -3 -20 9 0 11 9 21 20 21 11 0 20 10 20 21
0 12 -9 16 -20 9 -11 -7 -20 -3 -20 9 0 11 11 21 25 21 17 1 15 7 -5 20 -27
18 -27 22 0 40 27 17 27 19 0 20 -27 1 -27 3 0 22 25 17 25 23 3 32 -23 9 -23
14 0 28 22 15 22 21 -3 38 -27 17 -27 19 0 20 27 1 27 3 0 20 -22 14 -11 19
45 20 41 0 75 -5 75 -11z m2120 -68 c0 -8 -78 -17 -174 -19 -95 -2 -181 -9
-190 -14 -9 -6 -16 6 -16 26 0 33 18 35 190 30 104 -4 190 -14 190 -23z"/>
<path d="M3414 5167 c-23 -23 -16 -50 9 -35 16 10 20 4 11 -19 -8 -22 -2 -33
18 -33 19 0 25 -9 15 -25 -10 -17 -4 -16 19 2 36 30 47 53 15 34 -11 -7 -31
11 -46 39 -15 28 -33 45 -41 37z"/>
<path d="M2973 5103 c-18 -20 -33 -46 -33 -59 0 -12 -16 -31 -35 -42 -33 -20
-33 -21 0 -21 19 -1 35 -11 35 -24 0 -13 6 -17 14 -9 8 8 15 43 15 78 1 35 11
62 23 60 12 -2 21 9 21 25 0 37 0 36 -40 -8z"/>
<path d="M3400 5015 c-3 -8 -6 -22 -8 -30 -1 -8 -11 -28 -20 -45 -14 -24 -13
-25 8 -6 18 17 37 18 63 4 25 -13 37 -13 37 1 0 11 13 15 28 9 15 -6 33 -2 39
8 7 10 -18 15 -56 11 -52 -6 -70 1 -77 28 -5 19 -12 28 -14 20z"/>
<path d="M2666 4846 c21 -5 32 -21 27 -36 -6 -15 2 -37 17 -50 21 -17 25 -15
20 14 -4 20 -8 47 -8 61 -1 14 -22 24 -47 23 -36 -2 -38 -5 -9 -12z"/>
<path d="M2700 4100 c0 -33 10 -60 21 -60 12 0 16 9 9 20 -12 20 36 27 170 24
61 -1 55 3 -50 37 -153 49 -150 50 -150 -21z"/>
<path d="M2400 3732 c0 -121 105 -296 133 -222 7 18 25 27 41 21 16 -6 23 -2
15 10 -8 13 6 16 39 8 72 -18 70 46 -2 134 -32 39 -38 54 -15 35 69 -56 104
-72 72 -32 -25 31 -21 34 45 34 49 0 72 -9 72 -28 0 -16 11 -33 25 -39 14 -5
-9 -11 -50 -11 -62 -2 -75 -9 -75 -43 0 -35 11 -40 85 -36 47 3 104 -2 127 -9
35 -12 47 -2 77 64 37 81 30 122 -20 122 -16 0 -29 7 -29 16 0 9 -34 16 -75
16 -41 0 -163 8 -270 17 l-195 17 0 -74z"/>
<path d="M3657 3790 c-5 -5 -75 -14 -154 -19 -191 -13 -232 -55 -154 -157 42
-56 271 -66 271 -12 0 29 -15 38 -65 40 -60 2 -61 3 -15 16 34 9 42 19 24 29
-39 24 -8 53 57 53 66 0 77 -27 24 -58 -19 -12 -24 -21 -10 -21 14 -1 43 17
65 39 22 22 40 32 40 21 0 -10 -18 -31 -40 -46 -29 -21 -38 -49 -36 -106 2
-43 7 -67 11 -54 5 14 18 19 30 12 13 -8 15 -4 6 11 -10 17 2 22 41 16 32 -4
61 -23 69 -45 20 -59 99 108 99 210 l0 81 -127 0 c-69 0 -131 -4 -136 -10z"/>
<path d="M2398 3307 c9 -32 40 -104 69 -162 30 -58 53 -109 52 -115 -5 -26 28
-143 46 -165 34 -43 51 -28 88 80 38 112 49 199 23 182 -9 -5 -22 4 -28 21 -6
17 -30 36 -53 44 -22 7 -80 48 -127 92 -85 79 -86 79 -70 23z"/>
<path d="M3806 3254 c-154 -105 -179 -162 -135 -310 34 -115 80 -138 101 -49
8 30 20 64 29 75 13 17 141 373 132 369 -2 -1 -59 -40 -127 -85z"/>
<path d="M2670 2925 c-20 -63 -39 -121 -43 -128 -4 -7 9 -32 28 -56 l35 -42
75 62 75 62 255 1 c449 1 465 0 465 -39 0 -60 81 -98 114 -54 14 20 26 45 26
56 0 35 -88 260 -94 241 -3 -10 -44 -17 -91 -16 -76 2 -77 1 -12 -6 94 -10
133 -52 90 -95 -36 -37 -82 -41 -60 -6 10 17 4 17 -19 -2 -23 -19 -57 -23
-109 -14 -115 21 -402 17 -521 -6 -58 -11 -120 -16 -136 -9 -46 17 -29 133 22
149 34 11 32 13 -12 15 -47 2 -56 -10 -88 -113z"/>
<path d="M2904 2754 c13 -24 22 -56 19 -71 -3 -15 4 -21 16 -14 12 8 26 1 32
-15 6 -16 31 -26 55 -24 24 3 65 6 90 7 39 3 46 13 40 58 -5 46 -15 54 -56 49
-28 -3 -89 8 -135 24 l-86 30 25 -44z"/>
<path d="M3330 2760 c-22 -9 -65 -18 -95 -19 -86 -2 -81 -101 5 -101 33 0 63
2 67 5 4 3 22 -7 40 -22 18 -15 46 -22 62 -16 16 6 35 2 42 -8 7 -11 0 -18
-14 -14 -30 6 -37 -41 -11 -92 16 -34 23 -32 83 26 110 107 126 152 69 200
-61 51 -84 51 -68 2 13 -43 -38 -81 -110 -81 -42 0 -42 1 -7 60 20 33 43 60
52 60 10 0 12 -9 5 -20 -7 -11 -2 -20 10 -20 13 0 20 11 15 25 -10 31 -91 39
-145 15z"/>
<path d="M2726 2707 c-38 -26 -40 -34 -14 -63 16 -19 57 -68 91 -110 61 -74
63 -74 91 -34 16 23 39 35 52 26 14 -8 12 1 -3 20 -22 27 -23 34 -2 34 14 0
20 6 13 13 -7 7 -25 3 -40 -9 -21 -18 -34 -4 -63 67 -40 96 -57 104 -125 56z"/>
<path d="M2480 2486 c0 -31 -5 -87 -11 -126 -10 -66 -6 -73 90 -135 l101 -65
0 63 c0 35 -15 80 -33 100 -20 22 -24 37 -10 37 47 0 20 55 -57 118 l-80 64 0
-56z"/>
<path d="M3768 2481 c-70 -51 -84 -74 -95 -153 -25 -185 -10 -186 199 -19 0 0
-4 53 -10 117 l-12 116 -82 -61z"/>
<path d="M2700 2105 c0 -163 100 -351 157 -295 5 6 -1 10 -15 10 -13 0 -19 9
-12 20 7 11 2 20 -11 20 -13 0 -18 14 -11 32 8 21 -1 35 -26 42 -24 6 -41 33
-48 73 -12 80 -4 88 46 43 37 -33 40 -34 40 -2 0 19 -9 29 -20 22 -11 -7 -20
-4 -20 6 0 11 -18 24 -40 30 -22 6 -40 5 -40 -1z"/>
<path d="M3497 2073 c-124 -45 -137 -68 -137 -238 0 -68 5 -77 35 -65 19 8 72
27 117 43 l83 29 13 131 c16 159 26 150 -111 100z"/>
<path d="M2855 2048 c48 -22 70 -88 41 -124 -23 -31 -22 -31 9 -7 31 25 35 23
35 -25 0 -28 8 -52 18 -52 13 0 8 174 -6 193 -1 2 -29 9 -62 15 -33 7 -49 7
-35 0z"/>
<path d="M2987 1976 c7 -25 13 -89 13 -141 0 -53 9 -95 21 -95 13 0 16 26 8
70 -8 39 -6 70 4 69 30 -1 91 -100 79 -130 -8 -22 6 -29 54 -29 127 1 154 18
154 97 0 41 8 102 18 137 l19 64 -64 -14 c-83 -18 -189 -18 -261 2 -53 15 -56
13 -45 -30z"/>
<path d="M4706 850 c0 -66 4 -91 8 -55 5 36 5 90 0 120 -4 30 -8 1 -8 -65z"/>
<path d="M5632 1177 c10 -16 1 -20 -27 -12 -41 10 -50 -49 -12 -83 7 -6 8 4 1
23 -15 42 42 39 99 -6 36 -27 36 -27 2 13 -19 23 -30 46 -24 52 6 6 -4 17 -21
23 -21 8 -27 5 -18 -10z"/>
<path d="M1086 726 c-95 -6 -126 -16 -134 -42 -9 -30 -18 -248 -14 -319 2 -19
64 -25 240 -25 277 0 262 -12 262 222 l0 158 -75 0 c-41 0 -93 3 -115 7 -22 3
-96 3 -164 -1z m286 -126 c-4 -33 1 -60 11 -60 9 0 17 -13 17 -30 0 -16 -13
-30 -28 -30 -16 0 -45 -5 -65 -12 -31 -10 -32 -8 -7 10 22 16 -17 21 -150 18
l-180 -3 150 -13 150 -13 -155 -3 c-137 -4 -155 0 -155 32 0 32 18 35 195 29
151 -5 187 -2 159 16 -21 13 -92 19 -165 16 l-129 -7 0 55 0 55 180 0 179 0
-7 -60z m-72 -201 c0 -13 -50 -20 -130 -17 -71 2 -130 12 -130 21 0 9 59 17
130 17 78 0 130 -8 130 -21z"/>
<path d="M1095 606 c36 -5 90 -5 120 0 30 4 1 8 -65 8 -66 0 -91 -4 -55 -8z"/>
<path d="M5075 605 c47 -4 123 -4 170 0 47 5 9 8 -85 8 -93 0 -132 -3 -85 -8z"/>
<path d="M5040 540 c0 -12 60 -19 145 -18 103 1 131 7 95 18 -73 23 -240 23
-240 0z"/>
<path d="M3055 4610 c-96 -26 -288 -117 -325 -154 -11 -11 34 7 100 41 187 96
317 123 438 91 112 -30 151 -23 48 8 -122 37 -165 40 -261 14z"/>
<path d="M3560 4589 c35 -45 64 -68 85 -69 35 0 10 34 -50 69 -64 38 -65 38
-35 0z"/>
<path d="M2510 4285 c-51 -52 -102 -113 -113 -135 -19 -40 -19 -40 12 0 18 22
74 83 125 135 50 52 87 95 81 95 -6 0 -53 -43 -105 -95z"/>
<path d="M254 1461 c-7 -28 2 -67 22 -98 32 -48 32 -50 -1 -38 -19 8 -35 5
-35 -7 0 -11 -9 -15 -20 -8 -11 7 -20 -7 -20 -30 0 -23 -8 -38 -17 -32 -37 23
-143 -187 -143 -281 0 -49 -7 -85 -16 -79 -9 5 -18 -25 -21 -68 -4 -68 0 -75
36 -66 22 6 37 17 32 25 -11 17 97 101 128 101 11 0 15 13 9 28 -14 37 32 64
53 31 9 -15 12 -34 6 -44 -5 -9 -3 -14 7 -12 43 9 87 -28 64 -55 -18 -22 -16
-28 7 -28 17 0 36 -14 43 -31 6 -18 22 -25 35 -17 16 10 20 1 13 -25 -7 -28 0
-40 27 -42 48 -3 51 -12 -55 200 -148 299 -165 375 -84 375 20 0 185 -329 238
-476 23 -63 54 -141 68 -174 15 -33 33 -85 41 -115 14 -59 49 -76 49 -24 0
101 -344 904 -403 941 -11 7 -27 31 -35 54 -15 40 -16 40 -28 -5z"/>
<path d="M5926 1300 c-105 -213 -285 -703 -286 -777 0 -71 51 5 94 138 26 82
97 273 158 424 120 297 141 433 34 215z"/>
<path d="M2520 1124 c0 -45 86 -425 94 -416 5 4 -11 101 -35 215 -41 194 -59
254 -59 201z"/>
<path d="M5967 1029 c-40 -134 -96 -279 -112 -286 -8 -3 -14 -35 -13 -70 0
-34 6 -52 11 -39 5 13 23 19 38 13 18 -7 29 1 29 20 0 20 14 28 42 23 33 -7
37 -3 19 19 -16 19 -16 29 -1 34 14 5 20 71 16 186 -6 172 -7 176 -29 100z"/>
<path d="M3540 1058 c0 -12 -14 -17 -31 -10 -20 7 -26 4 -17 -12 10 -15 4 -19
-18 -10 -64 24 -134 -94 -137 -233 -4 -210 5 -642 14 -651 5 -5 9 153 9 350 1
430 0 425 111 495 76 48 114 93 79 93 -5 0 -10 -10 -10 -22z"/>
<path d="M3740 846 c-14 -75 -37 -185 -52 -245 -16 -60 -27 -137 -26 -170 l2
-61 17 60 c30 108 103 532 94 542 -6 5 -21 -51 -35 -126z"/>
<path d="M2630 790 c7 -55 34 -208 61 -340 26 -132 53 -287 61 -345 13 -108
36 -123 53 -36 5 27 2 45 -8 39 -9 -6 -17 -2 -17 9 0 11 10 23 23 27 18 6 18
24 1 74 -13 37 -19 75 -13 84 6 10 2 18 -10 18 -11 0 -21 14 -21 31 0 17 9 26
20 19 11 -7 20 2 20 20 0 18 -9 27 -20 20 -11 -7 -21 -1 -23 14 -5 45 -10 65
-27 103 -10 24 -6 44 12 57 21 15 19 17 -9 8 -32 -11 -36 -4 -28 37 5 27 2 45
-8 39 -9 -6 -17 -1 -17 10 0 11 9 25 20 32 12 7 15 21 9 31 -17 27 6 23 57
-10 30 -20 54 -23 74 -10 25 16 25 18 -5 19 -19 0 -35 7 -35 15 0 9 -34 34
-75 55 -41 22 -82 49 -91 60 -9 11 -11 -25 -4 -80z"/>
<path d="M2643 460 c0 -27 17 -144 38 -260 34 -189 37 -196 27 -70 -12 148
-65 416 -65 330z"/>
<path d="M5630 460 c-7 -11 -7 -20 0 -20 6 0 2 -18 -10 -40 -22 -41 6 -59 30
-20 7 12 20 16 30 10 9 -5 12 8 6 30 -13 49 -39 68 -56 40z"/>
<path d="M3623 187 c-14 -95 -21 -176 -16 -181 5 -4 20 69 34 163 14 94 21
175 16 181 -5 5 -20 -68 -34 -163z"/>
<path d="M2467 150 c0 -88 3 -122 8 -74 4 47 4 119 0 160 -5 40 -8 2 -8 -86z"/>
<path d="M3843 145 l-3 -145 180 0 180 0 -3 125 -4 125 -13 -120 c-7 -66 -15
-98 -17 -72 -1 27 -9 43 -16 36 -7 -8 -25 -4 -39 7 -19 17 -22 11 -13 -25 11
-41 8 -43 -21 -19 -19 15 -29 36 -23 45 6 10 0 19 -15 20 -14 1 4 10 41 21 57
16 63 23 40 50 -16 20 -28 23 -33 9 -4 -12 -16 -17 -26 -11 -10 6 -18 2 -18
-8 0 -13 -22 -14 -58 -3 -71 20 -88 8 -60 -44 17 -31 13 -45 -15 -66 -35 -25
-38 -19 -49 96 l-11 124 -4 -145z"/>
<path d="M1947 130 c0 -77 3 -106 8 -65 4 42 4 105 -1 140 -4 36 -8 2 -7 -75z"/>
<path d="M1745 225 c-14 -5 -19 -19 -11 -32 23 -37 24 -73 2 -73 -11 0 -16 11
-11 25 6 14 -2 36 -16 49 -28 27 -47 -1 -52 -81 -1 -23 -9 -7 -17 37 -14 77
-14 76 -17 -35 l-3 -115 151 0 150 0 -4 68 c-3 47 -13 65 -31 58 -22 -9 -22
-17 -2 -43 20 -27 19 -29 -2 -10 -15 13 -42 19 -59 14 -26 -8 -26 -5 2 13 20
12 30 32 22 44 -8 14 -4 16 13 6 17 -11 21 -8 12 7 -8 13 -28 23 -44 23 -17 0
-25 -8 -19 -19 6 -10 3 -23 -7 -30 -10 -6 -16 4 -13 23 2 19 26 41 53 48 35 9
40 16 18 24 -33 12 -77 12 -115 -1z"/>
<path d="M2274 224 c-22 -4 -33 -19 -26 -35 5 -15 1 -34 -11 -41 -11 -7 -16
-28 -11 -47 5 -19 -3 -34 -17 -34 -14 0 -20 13 -14 29 7 19 2 26 -17 20 -15
-5 -31 -33 -34 -63 l-7 -53 152 0 152 0 -14 55 c-8 30 -15 71 -15 90 0 19 -12
35 -26 35 -14 0 -26 -10 -26 -21 0 -12 -8 -16 -19 -10 -10 6 -24 3 -31 -9 -7
-11 -23 -20 -36 -20 -16 1 -15 6 3 18 14 9 26 24 25 34 -1 10 13 18 32 18 18
0 36 11 41 24 7 23 -24 26 -101 10z"/>
<path d="M4460 204 c0 -9 11 -27 23 -39 18 -18 12 -28 -25 -43 -43 -17 -22
-33 30 -23 10 2 7 -11 -7 -28 -14 -17 -43 -31 -63 -31 -21 0 -38 -9 -38 -20 0
-12 67 -20 160 -20 153 0 160 2 160 45 -1 29 -6 36 -16 21 -9 -14 -35 -19 -59
-13 -42 11 -42 11 -4 53 22 23 38 51 37 63 0 11 -6 10 -11 -4 -6 -14 -19 -20
-29 -14 -11 7 -17 5 -13 -5 3 -9 -4 -16 -15 -16 -11 0 -18 7 -15 15 3 8 -8 15
-24 15 -16 0 -35 10 -43 23 -8 14 -5 18 8 10 11 -8 26 -6 31 2 6 9 -12 18 -38
21 -27 2 -49 -4 -49 -12z"/>
<path d="M1020 75 c1 -32 5 -37 18 -18 9 14 22 26 29 25 85 -12 90 6 8 26 -48
11 -55 7 -55 -33z"/>
</g>
</svg>
